<svg viewBox="0 0 320 100" xmlns="http://www.w3.org/2000/svg" role="img" aria-labelledby="title desc">
  <title>KIRA Hackathon Logo</title>
  <desc>Bright gradient KIRA hackathon logo mark</desc>
  <defs>
    <linearGradient id="grad" x1="0%" y1="0%" x2="100%" y2="100%">
      <stop offset="0%" stop-color="#4f46e5" />
      <stop offset="45%" stop-color="#ec4899" />
      <stop offset="100%" stop-color="#f59e0b" />
    </linearGradient>
    <filter id="shadow" x="-20%" y="-20%" width="140%" height="140%">
      <feDropShadow dx="0" dy="3" stdDeviation="6" flood-color="#000" flood-opacity="0.16" />
    </filter>
  </defs>
  <g filter="url(#shadow)">
    <path d="M14 74 36 26h26l-26 48h-22Zm47 0 12-22h27l-12 22h-27Zm72-22-4 22h-22l22-48h20l22 48h-22l-4-22h-12Zm80 0h25v22h-25v-22Zm0-22h25V26h-25v6Zm52 44h-25v-6h21V26h8v40h-4Z" fill="url(#grad)" />
  </g>
  <text x="50%" y="90" text-anchor="middle" font-family="Inter, sans-serif" font-size="14" letter-spacing="0.1em" fill="#0f172a">HACKATHON</text>
</svg>
